<svg version="1" xmlns="http://www.w3.org/2000/svg" width="2421.333" height="2421.333" viewBox="0 0 1816.000000 1816.000000"><path d="M828 272.4c0 .8 1.6 3.4 3.6 5.8 5.4 6.4 10.2 14.2 15.5 25 5.8 11.7 7.2 16.5 10.9 37.2 1.4 8.3 1.2 32.2-.5 43.6-2.6 18.2-3.5 23.5-4.4 26-.5 1.4-1.9 5.9-3.1 10-2.6 9-3.7 12.2-6 17.5-.9 2.2-3.2 7.9-5 12.7-3.1 8.1-3.6 8.8-6.4 9.3-16.2 2.6-49.6 7.8-55.6 8.6-16.3 2.1-91 20.4-115.5 28.2-38.3 12.3-46.5 15-65.5 22-11.3 4.1-25 9.3-30.5 11.6-5.5 2.3-14.5 6-20 8.2-41.9 16.8-110.2 50.8-161 80.1-31.7 18.4-32.9 19.1-35 20.8-1.1.9-6.5 4.3-12 7.6-16.6 9.8-70.3 45.9-92 61.9-43.7 32.3-52 38.6-70.1 53.5-5 4.1-14.8 12.2-21.9 18-43.3 35.3-73.3 62.7-116.7 106.4C11.8 911.5 0 924.1 0 925.5c0 2.3 57.4 60.1 85 85.5 8.5 7.9 18.9 17.6 23 21.5 30.9 29.7 101.6 87.3 157 127.8 19.4 14.2 78.7 53.7 99.9 66.5 56.1 34 108.5 61.1 161.9 83.8 9.7 4.1 19.5 8.3 21.8 9.4 2.2 1 8.5 3.4 14 5.3 5.4 1.9 12.2 4.5 14.9 5.7 5.2 2.3 49.6 17.2 69.5 23.4 21.3 6.6 80.2 20.9 97 23.6 4.1.7 11.3 1.9 16 2.7 24.5 4.3 46.8 7.4 74 10.4 17.1 1.9 26.7 2.2 78.5 2.6 77.5.6 97.9-.9 166.5-12.2 29.9-4.9 44.1-7.8 69-14.2 11.8-3.1 22.6-5.8 24-6 7.3-1.4 33-9.4 67.5-20.8 18.9-6.3 68.3-25.4 71-27.5.6-.4 5.3-2.4 10.5-4.5s16.2-7 24.5-11c8.2-4 17.9-8.6 21.5-10.3 17.1-8.2 61.8-32.2 77.3-41.6 3.8-2.2 8.3-5 10-6 30.9-18.6 74-46.8 91.2-59.5 34.5-25.6 57-42.7 63.1-47.7 53.6-44.5 76.4-64.8 110.8-98.4 40.2-39.3 96.6-102.4 96.6-108.1 0-1.2-2.1-4.5-4.7-7.4-2.7-2.8-11.1-12.5-18.8-21.5-62.4-73.3-137.9-147.5-206.9-203.3-16.9-13.7-55.1-42.7-71.6-54.3-19.5-13.8-65-43.3-73.1-47.5-2.1-1-6.9-3.9-10.7-6.3-3.7-2.4-11.7-7-17.7-10.1-6.1-3.2-13.7-7.4-16.9-9.3-7.1-4.2-47.9-24.6-54.8-27.3-2.6-1-8-3.5-12-5.5-26.3-13-102.3-40.4-135.3-48.8-7.7-1.9-16.5-4.2-19.5-5-12.7-3.5-44.6-10.7-51.3-11.6-4-.6-14.5-2.3-23.5-3.8l-16.3-2.8-3.7-5.5c-2-3-5-7.2-6.7-9.3-1.6-2.1-5.7-7.3-9-11.5s-6.2-7.8-6.5-8.1c-.3-.3-2.7-3.2-5.4-6.5-18.5-22.4-51.1-52.1-85.4-77.7-13.6-10.1-15.6-11.5-23.7-16.5-4.4-2.7-13.4-8.3-20-12.5-6.6-4.1-15.1-9.2-19-11.3-20.2-11-26.4-14.3-30.5-16.2-2.5-1.2-8.8-4.1-14-6.6-17.4-8.1-19-8.7-25.1-8.7-4.4 0-5.9.4-5.9 1.4zm-61.1 294.4c-3 3.7-11 12.8-26.4 30.2-12.5 14.1-33.3 35.2-64.6 65.5-10.2 9.9-22.7 22.9-27.8 29-5.1 6-10.3 12.1-11.5 13.5-1.1 1.4-4.8 6.1-8.1 10.5s-6.5 8.6-7.2 9.5c-16.1 20.8-35 51.1-44.5 71-3.4 7.3-8 17.4-8.8 19.5-.5 1.1-1.7 4.1-2.9 6.7-1.2 2.6-2.1 5.2-2.1 5.8 0 .6-.4 1.8-.9 2.8-.8 1.5-2.3 6.3-5.2 17.7-.6 2.2-1.5 4.8-2 5.7-.5 1-.9 3.3-.9 5.1 0 1.8-.4 3.7-.9 4.2-1.9 2.1-2.4 11.4-2.4 48.5 0 26.5.3 40.2 1.2 44 .6 3 1.4 7 1.8 8.8.3 1.8.9 3.5 1.4 3.8.5.3.9 1.6.9 2.9 0 1.3.5 2.7 1 3 .6.3 1 1.7 1 3s.5 2.7 1 3c.6.3 1 1.7 1 3s.5 2.7 1 3c.6.3 1 1.4 1 2.4s1.6 5.1 3.6 9.2 4.1 8.5 4.8 9.9c8.8 19.5 32 50.4 54.6 73 29.8 29.8 66.1 56.3 115 83.9 9.6 5.4 44.1 22.5 55.5 27.5 6.1 2.7 12.8 5.7 15 6.6 2.2 1 8.1 3.5 13 5.5 5 2 10.4 4.4 12.1 5.2 5.1 2.3 62.4 22.4 62.4 21.8 0-.1 4.6 1.3 10.3 3.1 6.8 2.3 12.1 3.4 16 3.4 5.7 0 5.7 0 5.7-3 0-2.9-.3-3.8-2.8-8.7-.7-1.3-1.2-3.2-1.2-4.2 0-1.1-.4-2.3-1-2.6-.5-.3-1-1.9-1-3.5s-.4-3.2-1-3.5c-.5-.3-1-1.9-1-3.5s-.4-3.1-.9-3.5c-.6-.3-1.3-3.7-1.7-7.5-.4-3.9-1.1-7.3-1.5-7.6-.5-.3-.9-2.4-.9-4.8 0-2.3-.4-4.6-.9-5.1-.5-.6-1.2-3.9-1.6-7.5-1.1-10.6-.9-58.9.3-65.5 1.9-10.1 3-15.7 4.7-23 .9-3.9 1.9-8.2 2.2-9.8.3-1.5.9-3 1.4-3.3.5-.3.9-1.4.9-2.5 0-1 .4-2.7.9-3.7.5-.9 1.3-2.8 1.9-4.2 4.1-10.5 17-36.6 18.7-38 .8-.7 1.5-1.6 1.5-2.1 0-1.3 18.3-28.7 24.6-37 3.3-4.1 9.1-11.3 12.9-15.8 18.1-21.5 30.3-36 33.5-40 1.9-2.3 4.3-5.3 5.4-6.4 1-1.2 3.7-4.7 6-7.7 2.2-3 4.3-5.7 4.6-6 1.1-1 14.6-20 17.9-25.2 5.7-9 20.2-33 23.8-39.3 5.9-10.5 26.3-52.3 26.3-53.9 0-.3.9-2.8 2.1-5.4 1.2-2.6 2.5-5.7 3-7 .5-1.2 1.3-3.2 1.8-4.5.5-1.2 1.4-3.8 2.1-5.7 1.5-4.2 2.9-7.9 4.1-10.2.5-1 .9-2.7.9-3.7 0-1.1.4-2.2.9-2.5.5-.3 1.1-1.6 1.4-2.8.3-1.3 2.8-11.3 5.7-22.3 2.8-11 5.6-22.5 6.1-25.5 2.1-11.3 3.1-17.7 4.1-26 1.4-10.4 1.6-64.6.4-71.4l-.9-4.9 3.9 2.2c8.3 4.6 33.4 23.2 43.4 32.1 15.2 13.5 31.9 30 41.8 41.5 4.7 5.5 9.1 10.5 9.8 11.1.7.6 5 6 9.6 12.1 20.7 27.7 40.5 64.4 53 98.3 8.4 22.8 12.5 37.8 17.2 63.6 10 53.7 7.2 112.3-8 168.2-3.4 12.5-14 41.2-20.2 54.9-22.8 49.8-60.6 99.4-102.7 134.6-6.6 5.5-12.2 10.3-12.5 10.7-.8 1-12.1 9.4-19 14.1-25.4 17.2-63.8 37.4-86 45.1-34.6 12.1-43.5 14.6-71 19.8-29.9 5.6-40.6 6.5-76 6.5-38.4 0-52.1-1.5-97-10.6-17.1-3.5-57.9-18-76.1-27-6.8-3.4-14.7-7.2-17.7-8.5-9.7-4.3-43.4-25.7-56.8-36.1-29.4-22.8-62.4-56.8-82.9-85.2-17.1-23.8-35.7-58.9-46.6-88.1-8.2-22-11.2-32.3-15.3-52.5-7.5-36.3-9-52.9-8.3-87.8.5-28.3 1.9-40.5 7.8-69.7 5.3-26.6 11.6-46.3 23.6-74.5 9.1-21.4 28.4-54.4 43.6-74.9 16.9-22.6 49.2-56.1 70.2-72.8 11.9-9.4 41.3-29.8 43-29.8.2 0 3.3-1.8 6.7-4.1 10.1-6.5 56.4-28.5 57.7-27.3.2.1-.7 1.6-2 3.2z"/><path d="M1169.3 638.5c-.3.9.4 5.1 1.5 9.3 3.2 12 4.6 24.1 3.7 32.4-.4 4-1.1 10.9-1.5 15.3-2 19.4-3.1 28.1-4 30-.4 1.1-1.1 3.6-1.4 5.5-.3 1.9-1 5.3-1.5 7.5-.6 2.2-1.3 5.3-1.6 7-.4 1.6-1 3.9-1.5 5s-1.1 3.1-1.5 4.5c-.3 1.4-1 3.8-1.5 5.5-2.1 7.3-4.4 15.5-5.4 19.5-.8 2.9-5.7 17.5-6.8 20-.6 1.4-1.5 3.5-1.9 4.7-.5 1.3-1.3 3.3-1.8 4.5-1.3 3.6-2.7 7.1-3.9 9.8-.6 1.4-1.4 3.6-1.7 5-.4 1.4-2.1 5.4-3.7 9-1.6 3.6-3.8 8.3-4.8 10.5-3.6 8.2-18.1 37.2-20.7 41.5-1.4 2.5-3.6 6.3-4.8 8.5-10.1 18.4-25.8 39.7-45.5 61.5-10.3 11.5-14.2 16-19.5 22.5-2.2 2.7-6.3 7.6-9 10.9-2.8 3.4-7.3 9.2-10 13-2.8 3.8-7.1 9.9-9.8 13.5-11.7 16.3-20.6 30.7-26.7 43.3-2.2 4.6-4.6 9.4-5.4 10.8-3.6 6.4-9.2 20.7-10.2 25.8-.4 1.8-1.1 3.5-1.5 3.8-.5.3-.9 1.8-.9 3.4 0 1.6-.4 3.2-1 3.5-.5.3-1 2.1-1 4s-.4 3.7-1 4c-.5.3-1 2.1-1 4s-.4 3.7-1 4c-.5.3-1 3.2-1 6.4 0 3.1-.5 6.2-1 6.7-1.4 1.4-.7 36.5.9 45.4.6 3.6 1.4 8.2 1.7 10.3.4 2 1 4 1.5 4.3.5.3.9 1.8.9 3.4 0 1.6.5 3.2 1 3.5.6.3 1 1.7 1 3s.5 2.7 1 3c.6.3 1 1.5 1 2.5 0 2 4.5 16.2 6.1 19.2 1.4 2.6 2.5 2.3 7.7-2.6 8.2-7.6 23.8-19.3 42-31.5 33.5-22.3 63.8-42.1 64.7-42.1.3 0 1.8-.9 3.3-1.9 6.8-4.8 31.1-20.1 39.7-25.1 11.6-6.7 44-30.2 53.1-38.5.6-.6 4.8-4.4 9.3-8.5 17.2-15.6 39.7-43.3 50.3-61.7 4.4-7.7 11.4-21.9 13.2-26.8 1-2.8 2.3-5.4 2.7-6 .5-.5.9-1.9.9-3.1 0-1.3.4-2.5.8-2.8.4-.3 1.4-2.8 2.2-5.6.8-2.8 1.8-5.3 2.2-5.6.4-.3.8-1.8.8-3.4 0-1.6.5-3.2 1-3.5.6-.3 1-2.1 1-4s.4-3.6.9-3.9c.5-.3 1.1-2.3 1.4-4.3.4-2.1 1.2-6.7 1.9-10.3.8-4.5 1.2-17.9 1.1-44 0-39.3-.3-42.9-5.3-65.5-.6-2.8-1.4-6.5-1.7-8.3-.3-1.8-.9-3.5-1.4-3.8-.5-.3-.9-1.8-.9-3.4 0-1.6-.4-3.1-.9-3.4-.5-.3-1.1-2-1.4-3.8-1-6.1-2.9-13.3-3.8-14.3-.5-.5-.9-1.9-.9-3.1 0-1.3-.4-2.6-1-2.9-.5-.3-1-1.5-1-2.6 0-1.9-.4-2.8-2.8-7.6-.7-1.3-1.2-2.7-1.2-3.3 0-.9-.9-3.2-6-14.5-1-2.2-2.6-6.3-3.6-9-1-2.8-3.2-7.7-5-11.1-1.8-3.3-6.5-12.5-10.5-20.4-4-8-9.1-17.1-11.4-20.5-2.3-3.3-4.4-6.7-4.7-7.5-.3-.9-3.2-5.6-6.4-10.5-3.3-5-6.3-9.7-6.9-10.6-3.4-5.3-11-16.5-11.5-16.9-.3-.3-2.1-2.6-3.8-5.2-5.3-7.7-11.4-11.2-12.9-7.3z"/></svg>